<?xml version="1.0" standalone="no"?><!DOCTYPE svg PUBLIC "-//W3C//DTD SVG 1.1//EN" "http://www.w3.org/Graphics/SVG/1.1/DTD/svg11.dtd"><svg xmlns:xlink="http://www.w3.org/1999/xlink" version="1.1" id="chartsvg" class="font-class highcharts-root" style="font-family:&quot;Lucida Grande&quot;, &quot;Lucida Sans Unicode&quot;, Arial, Helvetica, sans-serif;font-size:8px;" xmlns="http://www.w3.org/2000/svg" width="100%" height="100%" viewBox="0 0 600 400"><desc>Created with Highcharts 6.1.0</desc><defs><clipPath id="highcharts-1baxy6i-8"><rect x="0" y="0" width="537" height="277" fill="none"></rect></clipPath></defs><rect fill="#ffffff" class="highcharts-background" x="0" y="0" width="600" height="400" rx="0" ry="0"></rect><rect fill="none" class="highcharts-plot-background" x="53" y="51" width="537" height="277"></rect><g class="highcharts-grid highcharts-xaxis-grid "><path fill="none" class="highcharts-grid-line" d="M 57.5 51 L 57.5 328" opacity="1"></path><path fill="none" class="highcharts-grid-line" d="M 132.5 51 L 132.5 328" opacity="1"></path><path fill="none" class="highcharts-grid-line" d="M 208.5 51 L 208.5 328" opacity="1"></path><path fill="none" class="highcharts-grid-line" d="M 283.5 51 L 283.5 328" opacity="1"></path><path fill="none" class="highcharts-grid-line" d="M 358.5 51 L 358.5 328" opacity="1"></path><path fill="none" class="highcharts-grid-line" d="M 433.5 51 L 433.5 328" opacity="1"></path><path fill="none" class="highcharts-grid-line" d="M 509.5 51 L 509.5 328" opacity="1"></path><path fill="none" class="highcharts-grid-line" d="M 584.5 51 L 584.5 328" opacity="1"></path></g><g class="highcharts-grid highcharts-yaxis-grid "><path fill="none" stroke="#e6e6e6" stroke-width="1" class="highcharts-grid-line" d="M 53 328.5 L 590 328.5" opacity="1"></path><path fill="none" stroke="#e6e6e6" stroke-width="1" class="highcharts-grid-line" d="M 53 259.5 L 590 259.5" opacity="1"></path><path fill="none" stroke="#e6e6e6" stroke-width="1" class="highcharts-grid-line" d="M 53 190.5 L 590 190.5" opacity="1"></path><path fill="none" stroke="#e6e6e6" stroke-width="1" class="highcharts-grid-line" d="M 53 120.5 L 590 120.5" opacity="1"></path><path fill="none" stroke="#e6e6e6" stroke-width="1" class="highcharts-grid-line" d="M 53 50.5 L 590 50.5" opacity="1"></path></g><rect fill="none" class="highcharts-plot-border" x="53" y="51" width="537" height="277"></rect><g class="highcharts-axis highcharts-xaxis "><path fill="none" class="highcharts-tick" stroke="#ccd6eb" stroke-width="1" d="M 57.5 328 L 57.5 338" opacity="1"></path><path fill="none" class="highcharts-tick" stroke="#ccd6eb" stroke-width="1" d="M 132.5 328 L 132.5 338" opacity="1"></path><path fill="none" class="highcharts-tick" stroke="#ccd6eb" stroke-width="1" d="M 208.5 328 L 208.5 338" opacity="1"></path><path fill="none" class="highcharts-tick" stroke="#ccd6eb" stroke-width="1" d="M 283.5 328 L 283.5 338" opacity="1"></path><path fill="none" class="highcharts-tick" stroke="#ccd6eb" stroke-width="1" d="M 358.5 328 L 358.5 338" opacity="1"></path><path fill="none" class="highcharts-tick" stroke="#ccd6eb" stroke-width="1" d="M 433.5 328 L 433.5 338" opacity="1"></path><path fill="none" class="highcharts-tick" stroke="#ccd6eb" stroke-width="1" d="M 509.5 328 L 509.5 338" opacity="1"></path><path fill="none" class="highcharts-tick" stroke="#ccd6eb" stroke-width="1" d="M 584.5 328 L 584.5 338" opacity="1"></path><path fill="none" class="highcharts-axis-line" stroke="#ccd6eb" stroke-width="1" d="M 53 328.5 L 590 328.5"></path></g><g class="highcharts-axis highcharts-yaxis "><path fill="none" class="highcharts-axis-line" d="M 53 51 L 53 328"></path></g><g class="highcharts-series-group"><g class="highcharts-series highcharts-series-0 highcharts-line-series highcharts-color-0 " transform="translate(53,51) scale(1 1)" clip-path="url(#highcharts-1baxy6i-8)"><path fill="none" d="M 5.2647058823482 216.15141 L 80.474789915963 204.283345 L 155.68487394958 197.809855 L 230.89495798319 180.52367 L 306.10504201681 142.612065 L 381.31512605042 110.895565 L 456.52521008404 87.070795 L 531.73529411765 63.467625" class="highcharts-graph" stroke="#7cb5ec" stroke-width="2" stroke-linejoin="round" stroke-linecap="round"></path></g><g class="highcharts-markers highcharts-series-0 highcharts-line-series highcharts-color-0 " transform="translate(53,51) scale(1 1)" clip-path="none"><path fill="#7cb5ec" d="M 9 216 A 4 4 0 1 1 8.999998000000167 215.99600000066667 Z" class="highcharts-point highcharts-color-0"></path><path fill="#7cb5ec" d="M 84 204 A 4 4 0 1 1 83.99999800000016 203.99600000066667 Z" class="highcharts-point highcharts-color-0"></path><path fill="#7cb5ec" d="M 159 198 A 4 4 0 1 1 158.99999800000018 197.99600000066667 Z" class="highcharts-point highcharts-color-0"></path><path fill="#7cb5ec" d="M 234 181 A 4 4 0 1 1 233.99999800000018 180.99600000066667 Z" class="highcharts-point highcharts-color-0"></path><path fill="#7cb5ec" d="M 310 143 A 4 4 0 1 1 309.9999980000002 142.99600000066667 Z" class="highcharts-point highcharts-color-0"></path><path fill="#7cb5ec" d="M 385 111 A 4 4 0 1 1 384.9999980000002 110.99600000066667 Z" class="highcharts-point highcharts-color-0"></path><path fill="#7cb5ec" d="M 460 87 A 4 4 0 1 1 459.9999980000002 86.99600000066667 Z" class="highcharts-point highcharts-color-0"></path><path fill="#7cb5ec" d="M 535 63 A 4 4 0 1 1 534.9999980000001 62.99600000066666 Z" class="highcharts-point highcharts-color-0"></path></g><g class="highcharts-series highcharts-series-1 highcharts-line-series highcharts-color-1 " transform="translate(53,51) scale(1 1)" clip-path="url(#highcharts-1baxy6i-8)"><path fill="none" d="M 5.2647058823482 242.49134 L 80.474789915963 243.67136 L 155.68487394958 235.80733 L 230.89495798319 235.656365 L 306.10504201681 232.00135 L 381.31512605042 235.05943 L 456.52521008404 224.202415 L 531.73529411765 220.99891" class="highcharts-graph" stroke="#434348" stroke-width="2" stroke-linejoin="round" stroke-linecap="round"></path></g><g class="highcharts-markers highcharts-series-1 highcharts-line-series highcharts-color-1 " transform="translate(53,51) scale(1 1)" clip-path="none"><path fill="#434348" d="M 5 238 L 9 242 5 246 1 242 Z" class="highcharts-point highcharts-color-1"></path><path fill="#434348" d="M 80 240 L 84 244 80 248 76 244 Z" class="highcharts-point highcharts-color-1"></path><path fill="#434348" d="M 155 232 L 159 236 155 240 151 236 Z" class="highcharts-point highcharts-color-1"></path><path fill="#434348" d="M 230 232 L 234 236 230 240 226 236 Z" class="highcharts-point highcharts-color-1"></path><path fill="#434348" d="M 306 228 L 310 232 306 236 302 232 Z" class="highcharts-point highcharts-color-1"></path><path fill="#434348" d="M 381 231 L 385 235 381 239 377 235 Z" class="highcharts-point highcharts-color-1"></path><path fill="#434348" d="M 456 220 L 460 224 456 228 452 224 Z" class="highcharts-point highcharts-color-1"></path><path fill="#434348" d="M 531 217 L 535 221 531 225 527 221 Z" class="highcharts-point highcharts-color-1"></path></g><g class="highcharts-series highcharts-series-2 highcharts-line-series highcharts-color-2 " transform="translate(53,51) scale(1 1)" clip-path="url(#highcharts-1baxy6i-8)"><path fill="none" d="M 5.2647058823482 260.73456 L 80.474789915963 252.45503 L 155.68487394958 254.833075 L 230.89495798319 249.617165 L 306.10504201681 249.043775 L 381.31512605042 243.237855 L 456.52521008404 232.476405 L 531.73529411765 222.449005" class="highcharts-graph" stroke="#90ed7d" stroke-width="2" stroke-linejoin="round" stroke-linecap="round"></path></g><g class="highcharts-markers highcharts-series-2 highcharts-line-series highcharts-color-2 " transform="translate(53,51) scale(1 1)" clip-path="none"><path fill="#90ed7d" d="M 1 257 L 9 257 9 265 1 265 Z" class="highcharts-point highcharts-color-2"></path><path fill="#90ed7d" d="M 76 248 L 84 248 84 256 76 256 Z" class="highcharts-point highcharts-color-2"></path><path fill="#90ed7d" d="M 151 251 L 159 251 159 259 151 259 Z" class="highcharts-point highcharts-color-2"></path><path fill="#90ed7d" d="M 226 246 L 234 246 234 254 226 254 Z" class="highcharts-point highcharts-color-2"></path><path fill="#90ed7d" d="M 302 245 L 310 245 310 253 302 253 Z" class="highcharts-point highcharts-color-2"></path><path fill="#90ed7d" d="M 377 239 L 385 239 385 247 377 247 Z" class="highcharts-point highcharts-color-2"></path><path fill="#90ed7d" d="M 452 228 L 460 228 460 236 452 236 Z" class="highcharts-point highcharts-color-2"></path><path fill="#90ed7d" d="M 527 218 L 535 218 535 226 527 226 Z" class="highcharts-point highcharts-color-2"></path></g><g class="highcharts-series highcharts-series-3 highcharts-line-series highcharts-color-3 " transform="translate(53,51) scale(1 1)" clip-path="url(#highcharts-1baxy6i-8)"><path fill="none" d="M 155.68487394958 265.93662 L 230.89495798319 260.145935 L 306.10504201681 256.06988 L 381.31512605042 245.90398 L 456.52521008404 229.356 L 531.73529411765 229.595605" class="highcharts-graph" stroke="#f7a35c" stroke-width="2" stroke-linejoin="round" stroke-linecap="round"></path></g><g class="highcharts-markers highcharts-series-3 highcharts-line-series highcharts-color-3 " transform="translate(53,51) scale(1 1)" clip-path="none"><path fill="#f7a35c" d="M 155 262 L 159 270 151 270 Z" class="highcharts-point highcharts-color-3"></path><path fill="#f7a35c" d="M 230 256 L 234 264 226 264 Z" class="highcharts-point highcharts-color-3"></path><path fill="#f7a35c" d="M 306 252 L 310 260 302 260 Z" class="highcharts-point highcharts-color-3"></path><path fill="#f7a35c" d="M 381 242 L 385 250 377 250 Z" class="highcharts-point highcharts-color-3"></path><path fill="#f7a35c" d="M 456 225 L 460 233 452 233 Z" class="highcharts-point highcharts-color-3"></path><path fill="#f7a35c" d="M 531 226 L 535 234 527 234 Z" class="highcharts-point highcharts-color-3"></path></g><g class="highcharts-series highcharts-series-4 highcharts-line-series highcharts-color-4 " transform="translate(53,51) scale(1 1)" clip-path="url(#highcharts-1baxy6i-8)"><path fill="none" d="M 5.2647058823482 259.12242 L 80.474789915963 268.76202 L 155.68487394958 265.774575 L 230.89495798319 261.42152 L 306.10504201681 264.550235 L 381.31512605042 260.63484 L 456.52521008404 251.69051 L 531.73529411765 251.916265" class="highcharts-graph" stroke="#8085e9" stroke-width="2" stroke-linejoin="round" stroke-linecap="round"></path></g><g class="highcharts-markers highcharts-series-4 highcharts-line-series highcharts-color-4 " transform="translate(53,51) scale(1 1)" clip-path="none"><path fill="#8085e9" d="M 1 255 L 9 255 5 263 Z" class="highcharts-point highcharts-color-4"></path><path fill="#8085e9" d="M 76 265 L 84 265 80 273 Z" class="highcharts-point highcharts-color-4"></path><path fill="#8085e9" d="M 151 262 L 159 262 155 270 Z" class="highcharts-point highcharts-color-4"></path><path fill="#8085e9" d="M 226 257 L 234 257 230 265 Z" class="highcharts-point highcharts-color-4"></path><path fill="#8085e9" d="M 302 261 L 310 261 306 269 Z" class="highcharts-point highcharts-color-4"></path><path fill="#8085e9" d="M 377 257 L 385 257 381 265 Z" class="highcharts-point highcharts-color-4"></path><path fill="#8085e9" d="M 452 248 L 460 248 456 256 Z" class="highcharts-point highcharts-color-4"></path><path fill="#8085e9" d="M 527 248 L 535 248 531 256 Z" class="highcharts-point highcharts-color-4"></path></g></g><g class="highcharts-label" opacity="1" transform="translate(280,193)"><path fill="none" class="highcharts-label-box" d="M 0 0" stroke="#7cb5ec" stroke-width="1"></path><text x="0" style="font-weight:bold;color:#7cb5ec;fill:#7cb5ec;" y="9">Installation</text></g><g class="highcharts-label" opacity="1" transform="translate(282,268)"><path fill="none" class="highcharts-label-box" d="M 0 0" stroke="#434348" stroke-width="1"></path><text x="0" style="font-weight:bold;color:#434348;fill:#434348;" y="9">Manufacturing</text></g><g class="highcharts-label" opacity="1" transform="translate(502,257)"><path fill="none" class="highcharts-label-box" d="M 0 0" stroke="#90ed7d" stroke-width="1"></path><text x="0" style="font-weight:bold;color:#90ed7d;fill:#90ed7d;" y="9"><tspan>Sales &amp; Distribution</tspan></text></g><g class="highcharts-label" opacity="1" transform="translate(497,287)"><path fill="none" class="highcharts-label-box" d="M 0 0" stroke="#f7a35c" stroke-width="1"></path><text x="0" style="font-weight:bold;color:#f7a35c;fill:#f7a35c;" y="9"><tspan>Project Development</tspan></text></g><g class="highcharts-label" opacity="1" transform="translate(513,306)"><path fill="none" class="highcharts-label-box" d="M 0 0" stroke="#8085e9" stroke-width="1"></path><text x="0" style="font-weight:bold;color:#8085e9;fill:#8085e9;" y="9">Other</text></g><text x="300" text-anchor="middle" class="font-class highcharts-title" style="color:#333333;font-size:8px;fill:#333333;" y="16"><tspan>Solar Employment Growth by Sector, 2010-2016</tspan></text><text x="300" text-anchor="middle" class="font-class highcharts-subtitle" style="color:#666666;font-size:8px;fill:#666666;" y="34"><tspan>Source: thesolarfoundation.com</tspan></text><g class="highcharts-legend" transform="translate(53,361)"><rect fill="none" class="highcharts-legend-box" rx="0" ry="0" x="0" y="0" width="494" height="24" visibility="visible"></rect><g><g><g class="highcharts-legend-item highcharts-line-series highcharts-color-0 highcharts-series-0" transform="translate(8,3)"><path fill="none" d="M 0 8 L 16 8" class="highcharts-graph" stroke="#7cb5ec" stroke-width="2"></path><path fill="#7cb5ec" d="M 12 8 A 4 4 0 1 1 11.999998000000167 7.9960000006666645 Z" class="highcharts-point"></path><text x="21" class="font-class" style="color:#333333;font-size:8px;font-weight:bold;cursor:pointer;fill:#333333;" text-anchor="start" y="11"><tspan>Installation</tspan></text></g><g class="highcharts-legend-item highcharts-line-series highcharts-color-1 highcharts-series-1" transform="translate(94.78125,3)"><path fill="none" d="M 0 8 L 16 8" class="highcharts-graph" stroke="#434348" stroke-width="2"></path><path fill="#434348" d="M 8 4 L 12 8 8 12 4 8 Z" class="highcharts-point"></path><text x="21" y="11" class="font-class" style="color:#333333;font-size:8px;font-weight:bold;cursor:pointer;fill:#333333;" text-anchor="start"><tspan>Manufacturing</tspan></text></g><g class="highcharts-legend-item highcharts-line-series highcharts-color-2 highcharts-series-2" transform="translate(194.90625,3)"><path fill="none" d="M 0 8 L 16 8" class="highcharts-graph" stroke="#90ed7d" stroke-width="2"></path><path fill="#90ed7d" d="M 4 4 L 12 4 12 12 4 12 Z" class="highcharts-point"></path><text x="21" y="11" class="font-class" style="color:#333333;font-size:8px;font-weight:bold;cursor:pointer;fill:#333333;" text-anchor="start"><tspan>Sales &amp; Distribution</tspan></text></g><g class="highcharts-legend-item highcharts-line-series highcharts-color-3 highcharts-series-3" transform="translate(316.015625,3)"><path fill="none" d="M 0 8 L 16 8" class="highcharts-graph" stroke="#f7a35c" stroke-width="2"></path><path fill="#f7a35c" d="M 8 4 L 12 12 4 12 Z" class="highcharts-point"></path><text x="21" y="11" class="font-class" style="color:#333333;font-size:8px;font-weight:bold;cursor:pointer;fill:#333333;" text-anchor="start"><tspan>Project Development</tspan></text></g><g class="highcharts-legend-item highcharts-line-series highcharts-color-4 highcharts-series-4" transform="translate(441.046875,3)"><path fill="none" d="M 0 8 L 16 8" class="highcharts-graph" stroke="#8085e9" stroke-width="2"></path><path fill="#8085e9" d="M 4 4 L 12 4 8 12 Z" class="highcharts-point"></path><text x="21" y="11" class="font-class" style="color:#333333;font-size:8px;font-weight:bold;cursor:pointer;fill:#333333;" text-anchor="start"><tspan>Other</tspan></text></g></g></g></g><g class="highcharts-axis-labels highcharts-xaxis-labels "><text x="58.264705882348" class="font-class" style="color:#666666;cursor:default;font-size:8px;fill:#666666;" text-anchor="middle" transform="translate(0,0)" y="345" opacity="1">2010</text><text x="133.47478991596" class="font-class" style="color:#666666;cursor:default;font-size:8px;fill:#666666;" text-anchor="middle" transform="translate(0,0)" y="345" opacity="1">2011</text><text x="208.68487394958" class="font-class" style="color:#666666;cursor:default;font-size:8px;fill:#666666;" text-anchor="middle" transform="translate(0,0)" y="345" opacity="1">2012</text><text x="283.89495798319" class="font-class" style="color:#666666;cursor:default;font-size:8px;fill:#666666;" text-anchor="middle" transform="translate(0,0)" y="345" opacity="1">2013</text><text x="359.10504201681" class="font-class" style="color:#666666;cursor:default;font-size:8px;fill:#666666;" text-anchor="middle" transform="translate(0,0)" y="345" opacity="1">2014</text><text x="434.31512605042" class="font-class" style="color:#666666;cursor:default;font-size:8px;fill:#666666;" text-anchor="middle" transform="translate(0,0)" y="345" opacity="1">2015</text><text x="509.52521008404" class="font-class" style="color:#666666;cursor:default;font-size:8px;fill:#666666;" text-anchor="middle" transform="translate(0,0)" y="345" opacity="1">2016</text><text x="579.8828125" class="font-class" style="color:#666666;cursor:default;font-size:8px;fill:#666666;" text-anchor="middle" transform="translate(0,0)" y="345" opacity="1">2017</text></g><g class="highcharts-axis-labels highcharts-yaxis-labels "><text x="38" class="font-class" style="color:#666666;cursor:default;font-size:11px;fill:#666666;" text-anchor="end" transform="translate(0,0)" y="332" opacity="1">0</text><text x="38" class="font-class" style="color:#666666;cursor:default;font-size:11px;fill:#666666;" text-anchor="end" transform="translate(0,0)" y="263" opacity="1">50k</text><text x="38" class="font-class" style="color:#666666;cursor:default;font-size:11px;fill:#666666;" text-anchor="end" transform="translate(0,0)" y="194" opacity="1">100k</text><text x="38" class="font-class" style="color:#666666;cursor:default;font-size:11px;fill:#666666;" text-anchor="end" transform="translate(0,0)" y="124" opacity="1">150k</text><text x="38" class="font-class" style="color:#666666;cursor:default;font-size:11px;fill:#666666;" text-anchor="end" transform="translate(0,0)" y="55" opacity="1">200k</text></g><text x="590" class="font-class highcharts-credits" text-anchor="end" style="cursor:pointer;color:#999999;font-size:9px;fill:#999999;" y="395">Highcharts.com</text></svg>