
<svg width="36px" height="39px" viewBox="0 0 36 39" version="1.1" xmlns="http://www.w3.org/2000/svg" xmlns:xlink="http://www.w3.org/1999/xlink">
    <desc></desc>
    <defs>
        <polygon id="path-1" points="0.434572297 2.56097561 2.67549932 2.56097561 2.67549932 0.368865854 0.434572297 0.368865854"></polygon>
        <polygon id="path-3" points="2.29153986 2.18067073 2.29153986 0.126768293 0.192154257 0.126768293 0.192154257 2.18067073 2.29153986 2.18067073"></polygon>
    </defs>
    <g id="Page-1" stroke="none" stroke-width="1" fill="none" fill-rule="evenodd">
        <path d="M30.458544,30.3558415 C30.458544,30.8936463 30.0126275,31.3298659 29.4628673,31.3298659 C28.9131072,31.3298659 28.4671906,30.8936463 28.4671906,30.3558415 C28.4671906,29.8180366 28.9131072,29.3818171 29.4628673,29.3818171 C30.0126275,29.3818171 30.458544,29.8180366 30.458544,30.3558415" id="Fill-1" fill="#009EE2"></path>
        <g id="Group-5" transform="translate(15.707432, 35.851012)">
            <mask id="mask-2" fill="white">
                <use xlink:href="#path-1"></use>
            </mask>
            <g id="Clip-4"></g>
            <path d="M2.67549932,1.46496341 C2.67549932,2.07020732 2.17373412,2.56106098 1.55503581,2.56106098 C0.9363375,2.56106098 0.434572297,2.07020732 0.434572297,1.46496341 C0.434572297,0.859719512 0.9363375,0.368865854 1.55503581,0.368865854 C2.17373412,0.368865854 2.67549932,0.859719512 2.67549932,1.46496341" id="Fill-3" fill="#009EE2" mask="url(#mask-2)"></path>
        </g>
        <path d="M34.5252855,27.9801951 C34.5252855,28.518 34.079369,28.9542195 33.5296089,28.9542195 C32.9798487,28.9542195 32.5339322,28.518 32.5339322,27.9801951 C32.5339322,27.4423902 32.9798487,27.0061707 33.5296089,27.0061707 C34.079369,27.0061707 34.5252855,27.4423902 34.5252855,27.9801951" id="Fill-6" fill="#009EE2"></path>
        <path d="M18.9684699,16.4857683 C18.9684699,17.4077195 18.2049142,18.1546707 17.2624682,18.1546707 C16.3208949,18.1546707 15.5564666,17.4077195 15.5564666,16.4857683 C15.5564666,15.5638171 16.3208949,14.8168659 17.2624682,14.8168659 C18.2049142,14.8168659 18.9684699,15.5638171 18.9684699,16.4857683" id="Fill-8" fill="#FFFFFF"></path>
        <path d="M18.8808574,21.6900976 C18.8808574,22.5642439 18.1565702,23.2736341 17.2629918,23.2736341 C16.3685408,23.2736341 15.6442536,22.5642439 15.6442536,21.6900976 C15.6442536,20.8159512 16.3685408,20.106561 17.2629918,20.106561 C18.1565702,20.106561 18.8808574,20.8159512 18.8808574,21.6900976" id="Fill-10" fill="#FFFFFF"></path>
        <path d="M18.8808574,26.8943415 C18.8808574,27.7684878 18.1565702,28.477878 17.2629918,28.477878 C16.3685408,28.477878 15.6442536,27.7684878 15.6442536,26.8943415 C15.6442536,26.0201951 16.3685408,25.3108049 17.2629918,25.3108049 C18.1565702,25.3108049 18.8808574,26.0201951 18.8808574,26.8943415" id="Fill-12" fill="#C0EFFF"></path>
        <path d="M18.8808574,32.0986707 C18.8808574,32.9728171 18.1565702,33.6822073 17.2629918,33.6822073 C16.3685408,33.6822073 15.6442536,32.9728171 15.6442536,32.0986707 C15.6442536,31.2245244 16.3685408,30.5151341 17.2629918,30.5151341 C18.1565702,30.5151341 18.8808574,31.2245244 18.8808574,32.0986707" id="Fill-14" fill="#6DC8F2"></path>
        <path d="M30.458544,14.6708049 C30.458544,15.2086098 30.0126275,15.6448293 29.4628673,15.6448293 C28.9131072,15.6448293 28.4671906,15.2086098 28.4671906,14.6708049 C28.4671906,14.133 28.9131072,13.6967805 29.4628673,13.6967805 C30.0126275,13.6967805 30.458544,14.133 30.458544,14.6708049" id="Fill-16" fill="#6DC8F2"></path>
        <path d="M34.5252855,12.3310122 C34.5252855,12.8688171 34.079369,13.3050366 33.5296089,13.3050366 C32.9798487,13.3050366 32.5339322,12.8688171 32.5339322,12.3310122 C32.5339322,11.7932073 32.9798487,11.3569878 33.5296089,11.3569878 C34.079369,11.3569878 34.5252855,11.7932073 34.5252855,12.3310122" id="Fill-18" fill="#009EE2"></path>
        <path d="M30.458544,19.8861463 C30.458544,20.4239512 30.0126275,20.8601707 29.4628673,20.8601707 C28.9131072,20.8601707 28.4671906,20.4239512 28.4671906,19.8861463 C28.4671906,19.3483415 28.9131072,18.912122 29.4628673,18.912122 C30.0126275,18.912122 30.458544,19.3483415 30.458544,19.8861463" id="Fill-20" fill="#6DC8F2"></path>
        <path d="M34.5252855,17.5297927 C34.5252855,18.0675976 34.079369,18.5038171 33.5296089,18.5038171 C32.9798487,18.5038171 32.5339322,18.0675976 32.5339322,17.5297927 C32.5339322,16.9919878 32.9798487,16.5557683 33.5296089,16.5557683 C34.079369,16.5557683 34.5252855,16.9919878 34.5252855,17.5297927" id="Fill-22" fill="#009EE2"></path>
        <path d="M34.5252855,22.7756098 C34.5252855,23.3134146 34.079369,23.7496341 33.5296089,23.7496341 C32.9798487,23.7496341 32.5339322,23.3134146 32.5339322,22.7756098 C32.5339322,22.2378049 32.9798487,21.8015854 33.5296089,21.8015854 C34.079369,21.8015854 34.5252855,22.2378049 34.5252855,22.7756098" id="Fill-24" fill="#009EE2"></path>
        <path d="M30.458544,25.079378 C30.458544,25.6171829 30.0126275,26.0534024 29.4628673,26.0534024 C28.9131072,26.0534024 28.4671906,25.6171829 28.4671906,25.079378 C28.4671906,24.5415732 28.9131072,24.1053537 29.4628673,24.1053537 C30.0126275,24.1053537 30.458544,24.5415732 30.458544,25.079378" id="Fill-26" fill="#6DC8F2"></path>
        <path d="M18.6132202,12.1210976 C18.6132202,12.8509756 18.008484,13.442561 17.262381,13.442561 C16.5171506,13.442561 15.9124144,12.8509756 15.9124144,12.1210976 C15.9124144,11.3912195 16.5171506,10.7996341 17.262381,10.7996341 C18.008484,10.7996341 18.6132202,11.3912195 18.6132202,12.1210976" id="Fill-28" fill="#C0EFFF"></path>
        <path d="M18.258494,8.15354878 C18.258494,8.69135366 17.8125774,9.12757317 17.2628173,9.12757317 C16.7130572,9.12757317 16.2671406,8.69135366 16.2671406,8.15354878 C16.2671406,7.6157439 16.7130572,7.17952439 17.2628173,7.17952439 C17.8125774,7.17952439 18.258494,7.6157439 18.258494,8.15354878" id="Fill-30" fill="#C0EFFF"></path>
        <path d="M18.0928678,4.40837805 C18.0928678,4.85654878 17.7211253,5.22020732 17.2629918,5.22020732 C16.8039857,5.22020732 16.4322432,4.85654878 16.4322432,4.40837805 C16.4322432,3.96020732 16.8039857,3.59654878 17.2629918,3.59654878 C17.7211253,3.59654878 18.0928678,3.96020732 18.0928678,4.40837805" id="Fill-32" fill="#6DC8F2"></path>
        <path d="M18.0928678,0.812170732 C18.0928678,1.26034146 17.7211253,1.624 17.2629918,1.624 C16.8039857,1.624 16.4322432,1.26034146 16.4322432,0.812170732 C16.4322432,0.364 16.8039857,0.000341463415 17.2629918,0.000341463415 C17.7211253,0.000341463415 18.0928678,0.364 18.0928678,0.812170732" id="Fill-34" fill="#6DC8F2"></path>
        <path d="M26.0510385,3.98419512 C26.0510385,4.31968293 25.7578331,4.592 25.3956895,4.592 C25.0344185,4.592 24.7412131,4.31968293 24.7412131,3.98419512 C24.7412131,3.64870732 25.0344185,3.37639024 25.3956895,3.37639024 C25.7578331,3.37639024 26.0510385,3.64870732 26.0510385,3.98419512" id="Fill-36" fill="#009EE2"></path>
        <path d="M26.3918898,32.7661463 C26.3918898,33.3039512 25.9459732,33.7401707 25.3962131,33.7401707 C24.8464529,33.7401707 24.4005364,33.3039512 24.4005364,32.7661463 C24.4005364,32.2283415 24.8464529,31.792122 25.3962131,31.792122 C25.9459732,31.792122 26.3918898,32.2283415 26.3918898,32.7661463" id="Fill-38" fill="#009EE2"></path>
        <path d="M26.3918898,17.0105122 C26.3918898,17.5483171 25.9459732,17.9845366 25.3962131,17.9845366 C24.8464529,17.9845366 24.4005364,17.5483171 24.4005364,17.0105122 C24.4005364,16.4727073 24.8464529,16.0364878 25.3962131,16.0364878 C25.9459732,16.0364878 26.3918898,16.4727073 26.3918898,17.0105122" id="Fill-40" fill="#C0EFFF"></path>
        <path d="M26.3918898,21.4267439 C26.3918898,21.9645488 25.9459732,22.4007683 25.3962131,22.4007683 C24.8464529,22.4007683 24.4005364,21.9645488 24.4005364,21.4267439 C24.4005364,20.888939 24.8464529,20.4527195 25.3962131,20.4527195 C25.9459732,20.4527195 26.3918898,20.888939 26.3918898,21.4267439" id="Fill-42" fill="#C0EFFF"></path>
        <path d="M26.3918898,27.4191707 C26.3918898,27.9569756 25.9459732,28.3931951 25.3962131,28.3931951 C24.8464529,28.3931951 24.4005364,27.9569756 24.4005364,27.4191707 C24.4005364,26.8813659 24.8464529,26.4451463 25.3962131,26.4451463 C25.9459732,26.4451463 26.3918898,26.8813659 26.3918898,27.4191707" id="Fill-44" fill="#6DC8F2"></path>
        <path d="M26.3918898,11.8062683 C26.3918898,12.3440732 25.9459732,12.7802927 25.3962131,12.7802927 C24.8464529,12.7802927 24.4005364,12.3440732 24.4005364,11.8062683 C24.4005364,11.2684634 24.8464529,10.8322439 25.3962131,10.8322439 C25.9459732,10.8322439 26.3918898,11.2684634 26.3918898,11.8062683" id="Fill-46" fill="#C0EFFF"></path>
        <path d="M22.3251482,35.0845122 C22.3251482,35.6223171 21.8792317,36.0585366 21.3294716,36.0585366 C20.7797114,36.0585366 20.3337949,35.6223171 20.3337949,35.0845122 C20.3337949,34.5467073 20.7797114,34.1104878 21.3294716,34.1104878 C21.8792317,34.1104878 22.3251482,34.5467073 22.3251482,35.0845122" id="Fill-48" fill="#009EE2"></path>
        <path d="M22.812864,19.3308415 C22.812864,20.1324268 22.1487887,20.782061 21.3293843,20.782061 C20.5099799,20.782061 19.8459046,20.1324268 19.8459046,19.3308415 C19.8459046,18.5292561 20.5099799,17.879622 21.3293843,17.879622 C22.1487887,17.879622 22.812864,18.5292561 22.812864,19.3308415" id="Fill-50" fill="#FFFFFF"></path>
        <path d="M22.6986361,24.5274878 C22.6986361,25.2676098 22.0851736,25.866878 21.3294716,25.866878 C20.5728969,25.866878 19.960307,25.2676098 19.960307,24.5274878 C19.960307,23.7873659 20.5728969,23.1880976 21.3294716,23.1880976 C22.0851736,23.1880976 22.6986361,23.7873659 22.6986361,24.5274878" id="Fill-52" fill="#C0EFFF"></path>
        <path d="M22.4496733,29.758878 C22.4496733,30.364122 21.9479081,30.8549756 21.3292098,30.8549756 C20.7105115,30.8549756 20.2087463,30.364122 20.2087463,29.758878 C20.2087463,29.1536341 20.7105115,28.6627805 21.3292098,28.6627805 C21.9479081,28.6627805 22.4496733,29.1536341 22.4496733,29.758878" id="Fill-54" fill="#6DC8F2"></path>
        <path d="M22.9475116,14.1603171 C22.9475116,15.0344634 22.2232245,15.7438537 21.3296461,15.7438537 C20.4351951,15.7438537 19.7109079,15.0344634 19.7109079,14.1603171 C19.7109079,13.2861707 20.4351951,12.5767805 21.3296461,12.5767805 C22.2232245,12.5767805 22.9475116,13.2861707 22.9475116,14.1603171" id="Fill-56" fill="#FFFFFF"></path>
        <path d="M22.2897193,9.86795122 C22.2897193,10.4057561 21.8193689,10.8419756 21.2399392,10.8419756 C20.6605095,10.8419756 20.1901591,10.4057561 20.1901591,9.86795122 C20.1901591,9.33014634 20.6605095,8.89392683 21.2399392,8.89392683 C21.8193689,8.89392683 22.2897193,9.33014634 22.2897193,9.86795122" id="Fill-58" fill="#C0EFFF"></path>
        <path d="M30.458544,9.53109756 C30.458544,10.0689024 30.0126275,10.505122 29.4628673,10.505122 C28.9131072,10.505122 28.4671906,10.0689024 28.4671906,9.53109756 C28.4671906,8.99329268 28.9131072,8.55707317 29.4628673,8.55707317 C30.0126275,8.55707317 30.458544,8.99329268 30.458544,9.53109756" id="Fill-60" fill="#C0EFFF"></path>
        <path d="M4.06674152,30.4464146 C4.06674152,30.9842195 4.51265807,31.420439 5.06241821,31.420439 C5.61217834,31.420439 6.0580949,30.9842195 6.0580949,30.4464146 C6.0580949,29.9086098 5.61217834,29.4723902 5.06241821,29.4723902 C4.51265807,29.4723902 4.06674152,29.9086098 4.06674152,30.4464146" id="Fill-62" fill="#009EE2"></path>
        <path d="M0,28.019122 C0,28.5569268 0.445916554,28.9931463 0.995676689,28.9931463 C1.54543682,28.9931463 1.99135338,28.5569268 1.99135338,28.019122 C1.99135338,27.4813171 1.54543682,27.0450976 0.995676689,27.0450976 C0.445916554,27.0450976 0,27.4813171 0,28.019122" id="Fill-64" fill="#009EE2"></path>
        <path d="M4.06674152,14.8170366 C4.06674152,15.3548415 4.51265807,15.791061 5.06241821,15.791061 C5.61217834,15.791061 6.0580949,15.3548415 6.0580949,14.8170366 C6.0580949,14.2792317 5.61217834,13.8430122 5.06241821,13.8430122 C4.51265807,13.8430122 4.06674152,14.2792317 4.06674152,14.8170366" id="Fill-66" fill="#6DC8F2"></path>
        <path d="M0,12.4062195 C0,12.9440244 0.445916554,13.3802439 0.995676689,13.3802439 C1.54543682,13.3802439 1.99135338,12.9440244 1.99135338,12.4062195 C1.99135338,11.8684146 1.54543682,11.4321951 0.995676689,11.4321951 C0.445916554,11.4321951 0,11.8684146 0,12.4062195" id="Fill-68" fill="#009EE2"></path>
        <path d="M4.06674152,19.9502561 C4.06674152,20.488061 4.51265807,20.9242805 5.06241821,20.9242805 C5.61217834,20.9242805 6.0580949,20.488061 6.0580949,19.9502561 C6.0580949,19.4124512 5.61217834,18.9762317 5.06241821,18.9762317 C4.51265807,18.9762317 4.06674152,19.4124512 4.06674152,19.9502561" id="Fill-70" fill="#6DC8F2"></path>
        <path d="M0,17.6105488 C0,18.1483537 0.445916554,18.5845732 0.995676689,18.5845732 C1.54543682,18.5845732 1.99135338,18.1483537 1.99135338,17.6105488 C1.99135338,17.0727439 1.54543682,16.6365244 0.995676689,16.6365244 C0.445916554,16.6365244 0,17.0727439 0,17.6105488" id="Fill-72" fill="#009EE2"></path>
        <path d="M0,22.8147927 C0,23.3525976 0.445916554,23.7888171 0.995676689,23.7888171 C1.54543682,23.7888171 1.99135338,23.3525976 1.99135338,22.8147927 C1.99135338,22.2769878 1.54543682,21.8407683 0.995676689,21.8407683 C0.445916554,21.8407683 0,22.2769878 0,22.8147927" id="Fill-74" fill="#009EE2"></path>
        <path d="M4.06674152,25.1545854 C4.06674152,25.6923902 4.51265807,26.1286098 5.06241821,26.1286098 C5.61217834,26.1286098 6.0580949,25.6923902 6.0580949,25.1545854 C6.0580949,24.6167805 5.61217834,24.180561 5.06241821,24.180561 C4.51265807,24.180561 4.06674152,24.6167805 4.06674152,25.1545854" id="Fill-76" fill="#6DC8F2"></path>
        <path d="M8.13339578,32.698622 C8.13339578,33.2364268 8.57931233,33.6726463 9.12907247,33.6726463 C9.6788326,33.6726463 10.1247492,33.2364268 10.1247492,32.698622 C10.1247492,32.1608171 9.6788326,31.7245976 9.12907247,31.7245976 C8.57931233,31.7245976 8.13339578,32.1608171 8.13339578,32.698622" id="Fill-78" fill="#009EE2"></path>
        <path d="M8.13339578,17.0857195 C8.13339578,17.6235244 8.57931233,18.0597439 9.12907247,18.0597439 C9.6788326,18.0597439 10.1247492,17.6235244 10.1247492,17.0857195 C10.1247492,16.5479146 9.6788326,16.1116951 9.12907247,16.1116951 C8.57931233,16.1116951 8.13339578,16.5479146 8.13339578,17.0857195" id="Fill-80" fill="#C0EFFF"></path>
        <path d="M8.13339578,22.3762683 C8.13339578,22.9140732 8.57931233,23.3502927 9.12907247,23.3502927 C9.6788326,23.3502927 10.1247492,22.9140732 10.1247492,22.3762683 C10.1247492,21.8384634 9.6788326,21.4022439 9.12907247,21.4022439 C8.57931233,21.4022439 8.13339578,21.8384634 8.13339578,22.3762683" id="Fill-82" fill="#C0EFFF"></path>
        <path d="M8.13339578,27.5474756 C8.13339578,28.0852805 8.57931233,28.5215 9.12907247,28.5215 C9.6788326,28.5215 10.1247492,28.0852805 10.1247492,27.5474756 C10.1247492,27.0096707 9.6788326,26.5734512 9.12907247,26.5734512 C8.57931233,26.5734512 8.13339578,27.0096707 8.13339578,27.5474756" id="Fill-84" fill="#6DC8F2"></path>
        <path d="M8.13339578,11.8814756 C8.13339578,12.4192805 8.57931233,12.8555 9.12907247,12.8555 C9.6788326,12.8555 10.1247492,12.4192805 10.1247492,11.8814756 C10.1247492,11.3436707 9.6788326,10.9074512 9.12907247,10.9074512 C8.57931233,10.9074512 8.13339578,11.3436707 8.13339578,11.8814756" id="Fill-86" fill="#C0EFFF"></path>
        <path d="M21.8949391,2.39067073 C21.8949391,2.72615854 21.6017337,2.99847561 21.2395901,2.99847561 C20.8783192,2.99847561 20.5851138,2.72615854 20.5851138,2.39067073 C20.5851138,2.05518293 20.8783192,1.78286585 21.2395901,1.78286585 C21.6017337,1.78286585 21.8949391,2.05518293 21.8949391,2.39067073" id="Fill-88" fill="#009EE2"></path>
        <path d="M26.0510385,7.76410976 C26.0510385,8.09959756 25.7578331,8.37191463 25.3956895,8.37191463 C25.0344185,8.37191463 24.7412131,8.09959756 24.7412131,7.76410976 C24.7412131,7.42862195 25.0344185,7.15630488 25.3956895,7.15630488 C25.7578331,7.15630488 26.0510385,7.42862195 26.0510385,7.76410976" id="Fill-90" fill="#009EE2"></path>
        <path d="M30.1176927,5.63892683 C30.1176927,5.97441463 29.8244873,6.24673171 29.4623438,6.24673171 C29.1010728,6.24673171 28.8078674,5.97441463 28.8078674,5.63892683 C28.8078674,5.30343902 29.1010728,5.03112195 29.4623438,5.03112195 C29.8244873,5.03112195 30.1176927,5.30343902 30.1176927,5.63892683" id="Fill-92" fill="#009EE2"></path>
        <path d="M21.8949391,6.15428049 C21.8949391,6.48976829 21.6017337,6.76208537 21.2395901,6.76208537 C20.8783192,6.76208537 20.5851138,6.48976829 20.5851138,6.15428049 C20.5851138,5.81879268 20.8783192,5.54647561 21.2395901,5.54647561 C21.6017337,5.54647561 21.8949391,5.81879268 21.8949391,6.15428049" id="Fill-94" fill="#009EE2"></path>
        <g id="Group-98" transform="translate(32.287500, 5.972963)">
            <mask id="mask-4" fill="white">
                <use xlink:href="#path-3"></use>
            </mask>
            <g id="Clip-97"></g>
            <path d="M2.29171439,1.15371951 C2.29171439,1.72054878 1.82136405,2.18067073 1.24193432,2.18067073 C0.662504595,2.18067073 0.192154257,1.72054878 0.192154257,1.15371951 C0.192154257,0.586890244 0.662504595,0.126768293 1.24193432,0.126768293 C1.82136405,0.126768293 2.29171439,0.586890244 2.29171439,1.15371951" id="Fill-96" fill="#6DC8F2" mask="url(#mask-4)"></path>
        </g>
        <path d="M12.2001373,35.0845122 C12.2001373,35.6223171 12.6460539,36.0585366 13.195814,36.0585366 C13.7455741,36.0585366 14.1914907,35.6223171 14.1914907,35.0845122 C14.1914907,34.5467073 13.7455741,34.1104878 13.195814,34.1104878 C12.6460539,34.1104878 12.2001373,34.5467073 12.2001373,35.0845122" id="Fill-99" fill="#009EE2"></path>
        <path d="M11.7124215,19.4255122 C11.7124215,20.2270976 12.3764969,20.8767317 13.1959013,20.8767317 C14.0153056,20.8767317 14.679381,20.2270976 14.679381,19.4255122 C14.679381,18.6239268 14.0153056,17.9742927 13.1959013,17.9742927 C12.3764969,17.9742927 11.7124215,18.6239268 11.7124215,19.4255122" id="Fill-101" fill="#FFFFFF"></path>
        <path d="M11.8267367,24.5987683 C11.8267367,25.3388902 12.4393266,25.9381585 13.1959012,25.9381585 C13.9524759,25.9381585 14.5650658,25.3388902 14.5650658,24.5987683 C14.5650658,23.8586463 13.9524759,23.259378 13.1959012,23.259378 C12.4393266,23.259378 11.8267367,23.8586463 11.8267367,24.5987683" id="Fill-103" fill="#C0EFFF"></path>
        <path d="M12.0756123,29.9131341 C12.0756123,30.518378 12.5773775,31.0092317 13.1960758,31.0092317 C13.8147741,31.0092317 14.3165393,30.518378 14.3165393,29.9131341 C14.3165393,29.3078902 13.8147741,28.8170366 13.1960758,28.8170366 C12.5773775,28.8170366 12.0756123,29.3078902 12.0756123,29.9131341" id="Fill-105" fill="#6DC8F2"></path>
        <path d="M11.5777739,14.2211829 C11.5777739,15.0953293 12.3020611,15.8047195 13.1956395,15.8047195 C14.0900905,15.8047195 14.8143776,15.0953293 14.8143776,14.2211829 C14.8143776,13.3470366 14.0900905,12.6376463 13.1956395,12.6376463 C12.3020611,12.6376463 11.5777739,13.3470366 11.5777739,14.2211829" id="Fill-107" fill="#FFFFFF"></path>
        <path d="M4.06674152,9.62440244 C4.06674152,10.1622073 4.51265807,10.5984268 5.06241821,10.5984268 C5.61217834,10.5984268 6.0580949,10.1622073 6.0580949,9.62440244 C6.0580949,9.08659756 5.61217834,8.65037805 5.06241821,8.65037805 C4.51265807,8.65037805 4.06674152,9.08659756 4.06674152,9.62440244" id="Fill-109" fill="#C0EFFF"></path>
        <path d="M0,7.343 C0,7.88080488 0.445916554,8.31702439 0.995676689,8.31702439 C1.54543682,8.31702439 1.99135338,7.88080488 1.99135338,7.343 C1.99135338,6.80519512 1.54543682,6.36897561 0.995676689,6.36897561 C0.445916554,6.36897561 0,6.80519512 0,7.343" id="Fill-111" fill="#6DC8F2"></path>
        <path d="M8.66771027,4.29023171 C8.66771027,4.62571951 8.96091568,4.89803659 9.32305926,4.89803659 C9.6843302,4.89803659 9.97753561,4.62571951 9.97753561,4.29023171 C9.97753561,3.9547439 9.6843302,3.68242683 9.32305926,3.68242683 C8.96091568,3.68242683 8.66771027,3.9547439 8.66771027,4.29023171" id="Fill-113" fill="#009EE2"></path>
        <path d="M12.4289422,10.1739878 C12.4289422,10.7117927 12.8992926,11.1480122 13.4787223,11.1480122 C14.058152,11.1480122 14.5285024,10.7117927 14.5285024,10.1739878 C14.5285024,9.63618293 14.058152,9.19996341 13.4787223,9.19996341 C12.8992926,9.19996341 12.4289422,9.63618293 12.4289422,10.1739878" id="Fill-115" fill="#C0EFFF"></path>
        <path d="M12.8237224,2.69670732 C12.8237224,3.03219512 13.1169278,3.3045122 13.4790714,3.3045122 C13.8403423,3.3045122 14.1335477,3.03219512 14.1335477,2.69670732 C14.1335477,2.36121951 13.8403423,2.08890244 13.4790714,2.08890244 C13.1169278,2.08890244 12.8237224,2.36121951 12.8237224,2.69670732" id="Fill-117" fill="#009EE2"></path>
        <path d="M8.66771027,8.07006098 C8.66771027,8.40554878 8.96091568,8.67786585 9.32305926,8.67786585 C9.6843302,8.67786585 9.97753561,8.40554878 9.97753561,8.07006098 C9.97753561,7.73457317 9.6843302,7.4622561 9.32305926,7.4622561 C8.96091568,7.4622561 8.66771027,7.73457317 8.66771027,8.07006098" id="Fill-119" fill="#009EE2"></path>
        <path d="M4.60096875,5.94496341 C4.60096875,6.28045122 4.89417416,6.55276829 5.25631774,6.55276829 C5.61758868,6.55276829 5.91079409,6.28045122 5.91079409,5.94496341 C5.91079409,5.60947561 5.61758868,5.33715854 5.25631774,5.33715854 C4.89417416,5.33715854 4.60096875,5.60947561 4.60096875,5.94496341" id="Fill-121" fill="#009EE2"></path>
        <path d="M12.8237224,6.46023171 C12.8237224,6.79571951 13.1169278,7.06803659 13.4790714,7.06803659 C13.8403423,7.06803659 14.1335477,6.79571951 14.1335477,6.46023171 C14.1335477,6.1247439 13.8403423,5.85242683 13.4790714,5.85242683 C13.1169278,5.85242683 12.8237224,6.1247439 12.8237224,6.46023171" id="Fill-123" fill="#009EE2"></path>
    </g>
</svg>