<?xml version="1.0" encoding="UTF-8"?>
<svg width="72px" height="54px" viewBox="0 0 72 54" version="1.1" xmlns="http://www.w3.org/2000/svg" xmlns:xlink="http://www.w3.org/1999/xlink">
    <!-- Generator: Sketch 49.1 (51147) - http://www.bohemiancoding.com/sketch -->
    <title>Group 8@2x</title>
    <desc>Created with Sketch.</desc>
    <defs>
        <rect id="path-1" x="0" y="0" width="72" height="54" rx="2"></rect>
        <rect id="path-2" x="18" y="4" width="20" height="46"></rect>
        <rect id="path-3" x="47" y="4" width="20" height="46"></rect>
    </defs>
    <g id="Page-1" stroke="none" stroke-width="1" fill="none" fill-rule="evenodd" opacity="0.5">
        <g id="Group-8">
            <g id="Rectangle-2-Copy-11">
                <use fill-opacity="0.1" fill="#A0A8BD" fill-rule="evenodd" xlink:href="#path-1"></use>
                <rect stroke-opacity="0.7" stroke="#9CA4B8" stroke-width="1" x="0.5" y="0.5" width="71" height="53" rx="2"></rect>
            </g>
            <rect id="Rectangle-10-Copy-7" fill="#0091DA" x="4" y="4" width="10" height="46"></rect>
            <g id="Rectangle-2-Copy-12">
                <use fill-opacity="0.1" fill="#A0A8BD" fill-rule="evenodd" xlink:href="#path-2"></use>
                <rect stroke-opacity="0.7" stroke="#9CA4B8" stroke-width="1" x="18.5" y="4.5" width="19" height="45"></rect>
            </g>
            <rect id="Rectangle-4-Copy" fill="#9CA4B8" x="17" y="3" width="3" height="3"></rect>
            <rect id="Rectangle-4-Copy-8" fill="#9CA4B8" x="46" y="3" width="3" height="3"></rect>
            <rect id="Rectangle-4-Copy-5" fill="#9CA4B8" x="17" y="48" width="3" height="3"></rect>
            <rect id="Rectangle-4-Copy-9" fill="#9CA4B8" x="46" y="48" width="3" height="3"></rect>
            <rect id="Rectangle-4-Copy-4" fill="#9CA4B8" x="36" y="3" width="3" height="3"></rect>
            <rect id="Rectangle-4-Copy-10" fill="#9CA4B8" x="65" y="3" width="3" height="3"></rect>
            <rect id="Rectangle-4-Copy-6" fill="#9CA4B8" x="36" y="48" width="3" height="3"></rect>
            <rect id="Rectangle-4-Copy-11" fill="#9CA4B8" x="65" y="48" width="3" height="3"></rect>
            <g id="Rectangle-2-Copy-14">
                <use fill-opacity="0.1" fill="#A0A8BD" fill-rule="evenodd" xlink:href="#path-3"></use>
                <rect stroke-opacity="0.7" stroke="#9CA4B8" stroke-width="1" x="47.5" y="4.5" width="19" height="45"></rect>
            </g>
            <path d="M43,0 L43,54" id="Line-11-Copy-2" stroke="#B2B9C7"></path>
        </g>
    </g>
</svg>